<svg version="1.1" id="Layer_1" xmlns="http://www.w3.org/2000/svg" xmlns:xlink="http://www.w3.org/1999/xlink" x="0px" y="0px"
	 width="100%" viewBox="0 0 2000 1252" enable-background="new 0 0 2000 1252" xml:space="preserve">
<path fill="#4C6971" opacity="1.000000" stroke="none" 
	d="
M1321.000000,1253.000000 
	C880.666809,1253.000000 440.833588,1253.000000 1.000295,1253.000000 
	C1.000197,835.666931 1.000197,418.333832 1.000098,1.000575 
	C667.666199,1.000383 1334.332397,1.000383 2000.999023,1.000192 
	C2000.999268,418.332764 2000.999268,835.665527 2000.999634,1252.999146 
	C1774.500000,1253.000000 1548.000000,1253.000000 1321.000000,1253.000000 
M831.246521,603.940918 
	C837.147034,600.145020 843.820618,597.158875 848.803406,592.401794 
	C863.881775,578.006409 868.535706,558.924133 868.810791,539.108704 
	C869.419128,495.284302 869.017944,451.445618 868.989990,407.612762 
	C868.980469,392.621429 865.865967,378.323792 858.560059,365.153900 
	C850.519653,350.660156 838.262695,341.381714 822.324524,336.975769 
	C808.260498,333.087830 794.098267,333.142883 779.850830,335.977661 
	C763.928284,339.145752 751.050232,346.882507 741.812195,360.467621 
	C732.830872,373.675232 729.328857,388.661896 729.161926,404.135132 
	C728.696472,447.296326 728.990356,490.465759 729.006104,533.631958 
	C729.010620,545.844177 730.540466,557.837402 735.011536,569.275940 
	C739.058899,579.630310 744.772217,588.712524 753.919800,595.621094 
	C763.209351,602.636902 773.435242,606.657715 784.859436,608.082581 
	C800.355591,610.015259 815.655029,609.840393 831.246521,603.940918 
M1231.000244,504.500000 
	C1231.000122,514.326965 1230.610352,524.173950 1231.115723,533.974854 
	C1231.569580,542.778748 1232.142700,551.738708 1234.183472,560.266052 
	C1238.977661,580.299438 1250.044800,596.018127 1269.766357,603.744568 
	C1287.862183,610.834045 1306.652344,611.030518 1325.438477,606.218689 
	C1342.958618,601.731140 1355.581787,591.324707 1363.076050,574.739685 
	C1368.276245,563.231567 1370.800903,551.045593 1370.884521,538.599731 
	C1371.180908,494.463501 1371.215210,450.322083 1370.816772,406.187439 
	C1370.738037,397.472168 1369.242432,388.498840 1366.764893,380.128571 
	C1360.230835,358.052887 1346.299316,342.759979 1323.400391,336.783203 
	C1311.971313,333.800140 1300.471436,333.464935 1288.696777,334.881378 
	C1270.206299,337.105652 1254.748169,344.278900 1244.047241,359.960968 
	C1235.000366,373.219086 1231.323853,388.343933 1231.126465,404.065613 
	C1230.710571,437.205719 1231.000122,470.354675 1231.000244,504.500000 
M1481.012451,698.664307 
	C1480.341797,704.694641 1479.112427,710.722900 1479.089844,716.755615 
	C1478.924438,760.918823 1479.119385,805.083496 1478.935669,849.246582 
	C1478.872192,864.479492 1481.352905,879.057434 1489.157227,892.198364 
	C1495.918945,903.583740 1505.366577,912.173828 1518.023193,917.137268 
	C1534.281250,923.512878 1551.027954,923.103149 1567.715820,920.755066 
	C1578.632446,919.218994 1588.540405,914.451416 1596.854248,906.712463 
	C1611.784424,892.814697 1617.689697,875.068359 1617.874023,855.447388 
	C1618.277954,812.453918 1618.111206,769.453491 1617.908081,726.457214 
	C1617.865356,717.424194 1617.579102,708.213928 1615.819458,699.401978 
	C1611.155273,676.044617 1598.287720,658.851746 1575.110596,651.046814 
	C1559.045654,645.636841 1542.628662,645.766724 1526.141968,649.856445 
	C1511.155640,653.573975 1498.773193,661.094543 1491.021973,674.558289 
	C1486.845337,681.812927 1484.343384,690.031677 1481.012451,698.664307 
M845.292114,1205.100952 
	C838.246460,1203.093262 831.141968,1201.270386 824.165283,1199.046387 
	C791.952087,1188.778076 760.503357,1176.578491 730.845581,1160.230103 
	C712.574951,1150.158691 694.342529,1139.934204 676.726318,1128.778320 
	C647.191956,1110.074707 620.189514,1087.970703 594.735901,1064.061401 
	C583.491882,1053.499390 573.078003,1042.046021 562.433044,1030.858643 
	C559.171387,1027.430786 556.517822,1023.431091 553.352417,1019.902588 
	C551.126160,1017.421021 548.675110,1013.586426 546.028931,1013.322876 
	C537.530579,1012.476501 528.894897,1013.008179 519.010254,1013.008179 
	C573.260498,1081.027710 638.142761,1134.324707 713.951599,1173.836426 
	C830.320190,1234.488159 954.234863,1256.664185 1084.118530,1238.668213 
	C1245.967529,1216.243286 1378.270996,1139.953857 1481.928711,1013.799988 
	C1473.123901,1013.003662 1464.663574,1012.955811 1456.205811,1013.078430 
	C1455.369873,1013.090515 1454.401245,1014.010376 1453.742920,1014.734863 
	C1444.208130,1025.229736 1435.231323,1036.292725 1425.093506,1046.164429 
	C1409.599976,1061.251099 1393.746460,1076.036255 1377.229858,1089.983154 
	C1362.906006,1102.078491 1347.855225,1113.426270 1332.375488,1124.006836 
	C1317.578735,1134.120605 1302.161987,1143.463135 1286.386230,1151.973755 
	C1267.299561,1162.270508 1247.919312,1172.208130 1227.978149,1180.682007 
	C1209.285767,1188.625244 1189.915649,1195.192749 1170.438721,1201.009399 
	C1150.802612,1206.873535 1130.770874,1211.550049 1110.716431,1215.827637 
	C1097.148193,1218.721680 1083.276611,1220.328613 1069.475220,1221.956665 
	C1055.106689,1223.651611 1040.676880,1225.529053 1026.243042,1225.827026 
	C994.619629,1226.479858 962.951782,1226.736938 931.523010,1221.998657 
	C918.757385,1220.074097 905.924194,1218.475464 893.265137,1215.996582 
	C877.437927,1212.897461 861.758484,1209.044189 845.292114,1205.100952 
M1167.652588,51.897812 
	C1178.781738,55.591766 1189.942871,59.192318 1201.033325,62.998760 
	C1225.589478,71.426788 1249.213623,81.988144 1272.207031,94.033806 
	C1296.982056,107.012772 1320.792358,121.442444 1343.588623,137.730438 
	C1366.183105,153.874359 1387.440063,171.547516 1407.712280,190.407135 
	C1418.759888,200.684982 1428.909180,211.937088 1439.315430,222.890594 
	C1442.689209,226.441879 1445.499634,230.521942 1448.743286,234.205521 
	C1450.859985,236.609039 1453.134766,240.444824 1455.612915,240.673950 
	C1464.262939,241.473663 1473.031982,240.983459 1483.121948,240.983459 
	C1420.150024,162.879791 1344.118652,103.849304 1253.913330,63.612381 
	C1136.358154,11.175880 1013.706604,-3.559433 887.306885,20.263170 
	C738.132568,48.378124 616.057800,122.838104 520.098267,240.236572 
	C528.802307,240.997681 537.123352,241.058243 545.440979,240.917633 
	C546.430908,240.900879 547.606262,239.971786 548.351196,239.152420 
	C557.665771,228.907089 566.398621,218.071289 576.302612,208.437592 
	C592.037842,193.131775 608.104370,178.098755 624.858154,163.928574 
	C639.175232,151.819382 654.294739,140.567062 669.696594,129.851715 
	C700.874084,108.160904 734.259277,90.374092 769.151062,75.345970 
	C802.340332,61.051067 836.502197,49.712406 871.802856,42.173031 
	C891.744263,37.914032 911.987244,34.928848 932.198242,32.116707 
	C946.674194,30.102528 961.303772,28.493176 975.897583,28.166332 
	C1010.149841,27.399227 1044.424072,27.473202 1078.406006,32.996414 
	C1091.630615,35.145870 1104.952148,36.846382 1118.044922,39.622086 
	C1134.448242,43.099613 1150.661377,47.472977 1167.652588,51.897812 
M1026.000732,430.500000 
	C1026.000732,454.592926 1026.000732,478.685852 1026.000732,502.778748 
	C1016.283081,482.836731 1007.399963,462.895416 998.468750,442.975677 
	C992.392578,429.423798 986.192749,415.927216 980.148621,402.361145 
	C971.116882,382.089111 962.123901,361.799377 953.252869,341.456757 
	C952.089417,338.788727 950.647949,337.909760 947.754761,337.930969 
	C929.092285,338.067749 910.428345,337.997498 891.764893,338.011292 
	C890.647156,338.012115 889.529602,338.151794 888.345520,338.231354 
	C888.345520,342.962524 888.345520,347.351349 888.345520,352.001465 
	C890.506165,352.001465 892.327332,351.923340 894.139832,352.014709 
	C903.050171,352.463928 908.971619,357.324066 908.975586,364.480988 
	C909.014954,435.802032 909.007751,507.123047 908.983398,578.444092 
	C908.981567,583.919739 905.827637,588.455383 900.613342,589.904480 
	C896.595520,591.020996 892.382446,591.435303 888.388611,592.138489 
	C888.388611,596.996094 888.388611,601.385986 888.388611,605.718750 
	C908.372620,605.718750 927.967590,605.718750 947.998779,605.718750 
	C947.998779,602.649292 947.744446,599.826355 948.056274,597.067322 
	C948.570496,592.518066 946.765930,591.111938 942.257446,590.883179 
	C931.754517,590.350525 926.927612,586.055237 926.946472,575.386780 
	C927.055176,513.897644 926.999634,452.408112 926.999634,390.918732 
	C926.999634,389.328735 926.999512,387.738739 926.999512,386.148743 
	C930.874207,392.337646 933.773193,398.790833 936.663086,405.248108 
	C943.734009,421.047455 950.877441,436.814911 957.850830,452.657166 
	C968.431274,476.693970 978.905273,500.777649 989.399048,524.852539 
	C994.998474,537.698792 1000.459412,550.606018 1006.138245,563.416870 
	C1011.960632,576.551636 1017.937012,589.618896 1023.957764,602.664001 
	C1024.553345,603.954346 1025.877319,605.772461 1026.949829,605.833862 
	C1032.529053,606.153198 1038.136230,605.982605 1044.006958,605.982605 
	C1044.006958,603.388367 1044.006958,601.411377 1044.006958,599.434387 
	C1044.006958,531.112854 1044.007202,462.791290 1044.006714,394.469727 
	C1044.006592,384.804718 1043.990112,375.139709 1044.004150,365.474731 
	C1044.014404,358.519012 1047.194214,354.491516 1054.100098,353.033569 
	C1057.576172,352.299683 1061.137817,351.970947 1064.603149,351.467316 
	C1064.603149,346.965851 1064.603149,342.585999 1064.603149,338.289429 
	C1044.276489,338.289429 1024.348145,338.289429 1004.359924,338.289429 
	C1004.359924,342.972260 1004.359924,347.360077 1004.359924,352.000000 
	C1006.038330,352.000000 1007.362976,351.927734 1008.677795,352.011292 
	C1020.331055,352.752228 1026.190552,356.730438 1026.056396,369.510925 
	C1025.846558,389.505280 1026.000732,409.503448 1026.000732,430.500000 
M1188.013916,359.411682 
	C1185.213379,347.596619 1182.412964,335.781525 1179.620361,323.999725 
	C1177.519775,323.999725 1176.005249,324.145386 1174.527832,323.972961 
	C1169.705078,323.410126 1165.934814,324.427643 1162.557007,328.576538 
	C1160.647217,330.922272 1156.777100,332.400818 1153.593262,332.838654 
	C1145.296631,333.979645 1136.766602,333.641785 1128.552856,335.127411 
	C1104.415405,339.493286 1086.185425,352.383270 1078.218872,376.016052 
	C1071.842285,394.932190 1076.669556,413.372345 1086.738281,430.133392 
	C1098.440063,449.612793 1114.380615,465.846893 1128.733765,483.294647 
	C1138.079956,494.656006 1147.824829,505.791748 1156.081909,517.919922 
	C1165.910400,532.356262 1170.256226,548.579956 1165.983643,566.211670 
	C1162.598145,580.182922 1151.287231,590.110962 1136.465942,590.036560 
	C1121.884277,589.963318 1111.925903,582.260193 1104.002808,570.999817 
	C1095.869507,559.440918 1092.102661,546.169495 1088.910645,532.647949 
	C1088.588257,531.282898 1087.114502,529.324158 1085.977539,529.177917 
	C1082.448975,528.724304 1078.825195,529.011963 1075.264282,529.011963 
	C1075.264282,555.011536 1075.264282,580.271545 1075.264282,605.995422 
	C1079.140015,605.995422 1082.773315,606.128052 1086.385864,605.911499 
	C1087.416260,605.849731 1088.589844,604.961182 1089.349243,604.132385 
	C1093.230957,599.895813 1097.844482,597.674133 1104.647583,600.936340 
	C1117.019775,606.868896 1129.923096,609.555298 1143.758667,609.113525 
	C1170.172974,608.270020 1189.346313,595.873962 1201.791748,573.202759 
	C1208.719604,560.582397 1208.874268,546.649658 1207.200562,532.420288 
	C1205.430542,517.371826 1200.249390,503.950073 1191.382080,491.902893 
	C1184.694458,482.816833 1177.784790,473.876068 1170.610229,465.170380 
	C1158.304810,450.238678 1145.435791,435.764465 1133.358765,420.654327 
	C1126.992065,412.688690 1120.572388,404.349091 1116.354248,395.176849 
	C1109.472412,380.212219 1111.332153,366.225830 1125.536011,355.135162 
	C1131.315308,350.622528 1138.285400,348.246246 1145.779785,349.111450 
	C1158.082275,350.531769 1166.070312,357.859772 1171.266357,368.676666 
	C1175.134277,376.728912 1178.984619,384.789612 1182.848267,392.857910 
	C1186.893555,391.774658 1190.926758,390.694641 1195.655396,389.428406 
	C1193.065552,379.435059 1190.579590,369.843140 1188.013916,359.411682 
M750.046692,892.470398 
	C735.041687,879.026611 730.760864,860.468262 726.518860,842.359619 
	C722.108154,842.359619 718.190552,842.359619 714.247681,842.359619 
	C714.247681,867.978699 714.247681,893.235962 714.247681,918.454041 
	C722.874023,919.778137 723.984863,919.350830 731.096313,914.530884 
	C734.808594,912.014771 739.011292,911.959900 743.062378,914.035034 
	C759.202393,922.302673 776.323242,923.933777 793.897705,920.942383 
	C814.549072,917.427246 829.561584,905.524963 839.614563,887.568726 
	C845.447266,877.150513 846.613159,865.627686 846.228821,853.592834 
	C845.799194,840.138306 843.136108,827.520203 836.371521,816.043579 
	C831.169373,807.217896 825.421936,798.617188 819.068665,790.587646 
	C807.879517,776.446350 795.983459,762.866333 784.496155,748.958252 
	C775.828552,738.464172 766.803894,728.203125 758.941040,717.126526 
	C753.004578,708.763672 749.530518,698.911133 751.391174,688.314087 
	C754.174683,672.460999 768.430542,660.027039 786.124146,662.920959 
	C793.441833,664.117798 800.028198,666.534729 803.858765,673.013672 
	C810.125366,683.612793 815.766663,694.581665 821.895325,705.804199 
	C825.142273,704.903931 829.498230,703.696167 833.886719,702.479370 
	C828.902710,682.049316 823.818420,661.853699 819.165100,641.559326 
	C818.293030,637.756104 816.820129,636.518921 813.263550,636.989075 
	C810.381409,637.370056 805.960510,636.582642 804.852844,638.160400 
	C799.075378,646.389709 790.759766,646.674622 782.152283,647.047424 
	C776.076721,647.310547 769.903931,647.440674 763.978333,648.638245 
	C749.227905,651.619385 736.861694,659.114746 727.079346,670.517090 
	C719.088196,679.831726 714.377808,690.634644 713.991516,703.107788 
	C713.467773,720.020508 718.837891,735.559082 728.596252,748.629639 
	C743.594299,768.718445 760.119446,787.690552 776.408997,806.784546 
	C790.023071,822.742493 802.838684,839.039612 805.698608,860.662476 
	C807.156860,871.687439 805.591919,882.529053 798.729553,891.629639 
	C786.523071,907.817200 762.133545,906.098694 750.046692,892.470398 
M490.001404,389.491791 
	C486.534088,374.076477 483.174988,358.635773 479.561493,343.254791 
	C477.143402,332.962067 476.981659,333.000061 465.995239,333.001221 
	C464.828613,333.001343 463.644440,333.132080 462.498779,332.977356 
	C459.488983,332.570770 458.542786,334.209320 457.978668,336.829865 
	C452.869720,360.564331 447.701721,384.286224 442.492493,407.998962 
	C438.715698,425.191010 434.828674,442.358765 431.029541,459.545929 
	C425.719788,483.567139 420.408478,507.588165 415.171936,531.625427 
	C412.361572,544.525940 409.663269,557.451416 406.993896,570.382019 
	C404.694122,581.522339 401.529633,591.677673 387.027222,591.227905 
	C386.055023,591.197754 384.266968,593.160950 384.150726,594.325989 
	C383.777832,598.064087 384.012085,601.862793 384.012085,605.617737 
	C404.339294,605.617737 424.055450,605.617737 443.999146,605.617737 
	C443.999146,603.080994 443.999146,600.925842 443.999146,598.770691 
	C443.999146,596.633728 443.999146,594.496765 443.999146,591.971008 
	C441.017883,591.614624 438.447906,591.212708 435.862274,591.016113 
	C427.988037,590.417480 421.438904,584.168640 422.260590,579.235046 
	C424.334442,566.782776 427.443085,554.502808 430.170288,542.001770 
	C447.475403,542.001770 464.294495,542.052185 481.112732,541.954712 
	C484.096588,541.937439 484.564789,543.714233 485.001740,545.939819 
	C487.075714,556.503845 489.093353,567.080750 491.335754,577.609436 
	C492.763428,584.312744 490.412903,588.605225 483.823578,589.968811 
	C479.283569,590.908264 474.663788,591.462341 470.316650,592.151123 
	C470.316650,597.122192 470.316650,601.382751 470.316650,605.610840 
	C498.350983,605.610840 526.066772,605.610840 553.999268,605.610840 
	C553.999268,603.065430 553.999268,600.908569 553.999268,598.751709 
	C553.999268,596.619995 553.999268,594.488281 553.999268,592.319031 
	C551.293823,591.822754 549.068115,591.192505 546.810181,591.040527 
	C538.924438,590.509583 534.776367,587.139709 533.032410,579.566162 
	C531.679810,573.691650 530.307861,567.821289 529.002747,561.936157 
	C523.957947,539.189270 519.024902,516.417053 513.876953,493.693542 
	C510.061829,476.853241 505.918976,460.087524 502.030945,443.263397 
	C497.958313,425.640656 494.015686,407.987915 490.001404,389.491791 
M643.960632,894.336670 
	C641.353455,906.824707 629.986145,902.370972 622.306396,905.773376 
	C622.306396,909.826294 622.306396,914.218018 622.306396,918.627686 
	C649.992004,918.627686 677.369995,918.627686 704.757080,918.627686 
	C704.757080,913.972656 704.757080,909.692383 704.757080,905.409119 
	C702.134705,904.911133 699.759827,904.298584 697.346680,904.033508 
	C691.067139,903.343750 686.478088,899.665771 685.067200,893.699341 
	C683.906189,888.789429 683.069275,883.803467 681.944824,878.884094 
	C674.976746,848.399597 667.909607,817.937744 660.992004,787.441833 
	C655.874756,764.882263 650.964172,742.275940 645.905151,719.703064 
	C642.628113,705.081482 639.294373,690.472168 635.900818,675.877197 
	C633.589661,665.937317 631.130798,656.031860 628.712219,646.004211 
	C623.436707,646.004211 618.606262,645.843079 613.799683,646.111633 
	C612.514954,646.183411 610.479492,647.343262 610.194702,648.387207 
	C608.566650,654.353333 607.324219,660.427002 606.022461,666.479492 
	C601.191528,688.941528 596.483032,711.430237 591.547852,733.869263 
	C586.824524,755.344971 581.774536,776.748901 577.051331,798.224609 
	C570.263062,829.090210 563.665588,859.997620 556.927002,890.874146 
	C555.545776,897.202820 549.619629,903.176270 544.262634,903.981995 
	C541.240173,904.436523 538.216125,904.880615 535.262634,905.319031 
	C535.262634,910.002808 535.262634,914.267212 535.262634,918.667847 
	C555.573120,918.667847 575.618835,918.667847 595.788513,918.667847 
	C595.788513,914.059875 595.788513,909.785583 595.788513,905.248962 
	C592.581909,904.807617 589.523438,904.436707 586.481873,903.958374 
	C578.894409,902.764893 572.922668,896.630371 574.082458,890.670166 
	C576.198059,879.799072 578.622437,868.984070 581.183411,858.208862 
	C581.485413,856.938232 583.442017,855.156128 584.649719,855.141785 
	C601.615601,854.940491 618.584717,855.005066 635.594543,855.005066 
	C636.117371,857.443176 636.558044,859.500793 636.999817,861.558167 
	C639.287476,872.212402 641.575378,882.866699 643.960632,894.336670 
M1005.026917,646.624878 
	C1001.221436,648.083191 997.429688,650.763855 993.608398,650.806519 
	C962.785156,651.151062 931.955933,651.079895 901.129395,650.950256 
	C891.841125,650.911194 889.064270,648.602417 886.043945,639.880676 
	C885.850159,639.321045 885.782471,638.717712 885.683533,638.261475 
	C880.979919,638.261475 876.698425,638.261475 872.480774,638.261475 
	C867.227783,663.503418 862.029236,688.483582 856.758972,713.808411 
	C861.192871,714.740356 864.977051,715.680359 868.816711,716.241150 
	C869.777588,716.381531 871.568298,715.548645 871.872131,714.745117 
	C874.690308,707.291870 877.248718,699.740906 879.916138,692.230164 
	C887.685730,670.353516 904.169739,663.069336 926.000671,665.585938 
	C926.000671,667.481567 926.000671,669.438660 926.000671,671.395752 
	C926.000671,721.552307 926.000671,771.708801 926.000671,821.865356 
	C926.000610,843.860901 926.027649,865.856567 925.986877,887.852051 
	C925.971130,896.336609 922.616821,901.674194 915.626587,903.647278 
	C912.046387,904.657959 908.212646,904.770203 904.298706,905.315613 
	C904.298706,909.808777 904.298706,914.201721 904.298706,918.634521 
	C932.311340,918.634521 960.023560,918.634521 987.756104,918.634521 
	C987.756104,913.989563 987.756104,909.712708 987.756104,905.419922 
	C984.635925,904.918640 981.738647,904.506836 978.862366,903.980408 
	C971.869934,902.700500 966.806946,897.934326 966.835571,890.313171 
	C967.110474,817.162292 966.999878,744.010010 966.999695,670.858093 
	C966.999695,669.071350 966.999634,667.284546 966.999634,664.594177 
	C973.578613,665.091125 979.654541,665.219971 985.628418,666.067932 
	C999.283081,668.006165 1007.706604,676.708740 1012.930725,688.749573 
	C1016.930054,697.967468 1020.277893,707.468079 1024.007202,717.079346 
	C1028.264160,715.941223 1032.607178,714.780090 1037.580688,713.450439 
	C1032.287720,688.065430 1027.079590,663.086975 1021.861450,638.061035 
	C1015.131897,638.234924 1007.715271,635.463989 1006.157532,645.284302 
	C1006.115417,645.549561 1005.708313,645.756958 1005.026917,646.624878 
M1316.752075,918.994812 
	C1353.405640,918.996338 1390.060425,918.847595 1426.711914,919.125183 
	C1434.124756,919.181274 1442.044800,919.795837 1445.394653,928.675720 
	C1445.640625,929.327637 1446.995728,929.895813 1447.854492,929.924683 
	C1451.787231,930.056702 1455.726685,929.982666 1459.613281,929.982666 
	C1459.613281,905.309631 1459.613281,881.265991 1459.613281,857.293823 
	C1454.954102,857.293823 1450.685547,857.293823 1446.369995,857.293823 
	C1445.873657,861.638000 1445.616821,865.739380 1444.886841,869.754639 
	C1444.161499,873.744263 1442.906860,877.634705 1441.978394,881.590759 
	C1439.405273,892.554565 1431.104858,900.339294 1420.071777,901.999023 
	C1415.873413,902.630554 1411.668091,903.554016 1407.449951,903.651489 
	C1397.053833,903.891541 1386.648193,903.730042 1375.999390,903.730042 
	C1375.999390,901.767517 1375.999390,900.283081 1375.999390,898.798706 
	C1375.999390,826.491394 1375.999268,754.184021 1375.999390,681.876709 
	C1375.999390,681.210266 1375.969360,680.542114 1376.006348,679.877686 
	C1376.480103,671.368591 1380.104492,667.284546 1388.296997,665.989319 
	C1391.471313,665.487366 1394.641235,664.956909 1397.714233,664.455627 
	C1397.714233,659.945984 1397.714233,655.684143 1397.714233,651.350586 
	C1369.717407,651.350586 1342.008667,651.350586 1314.239014,651.350586 
	C1314.239014,655.971802 1314.239014,660.240967 1314.239014,665.000610 
	C1315.921021,665.000610 1317.401001,664.808655 1318.815552,665.031311 
	C1329.131470,666.654846 1335.772827,668.662598 1335.116699,681.682800 
	C1334.555664,692.817200 1335.000854,704.002197 1335.000854,715.164856 
	C1335.000610,773.477234 1334.938965,831.789734 1335.061523,890.101868 
	C1335.081543,899.641541 1329.354492,902.649109 1323.331543,903.942627 
	C1320.346313,904.583740 1317.279541,904.844910 1314.005127,905.312927 
	C1314.005127,909.137024 1313.874756,912.623047 1314.087402,916.088013 
	C1314.148315,917.080078 1315.202026,918.011108 1316.752075,918.994812 
M1213.500000,919.000427 
	C1231.495239,919.000061 1249.498901,918.682251 1267.481445,919.158752 
	C1274.478882,919.344177 1282.178833,919.875732 1285.193604,928.519470 
	C1285.430664,929.199036 1286.751343,929.876648 1287.591064,929.906128 
	C1291.664795,930.049194 1295.746460,929.970825 1299.702515,929.970825 
	C1299.702515,905.257385 1299.702515,881.330750 1299.702515,857.013916 
	C1295.946289,857.013916 1292.453369,856.766052 1289.033569,857.156738 
	C1287.927979,857.282959 1286.365845,858.952393 1286.120972,860.143799 
	C1284.872925,866.217957 1284.358765,872.456665 1282.899170,878.470703 
	C1279.820557,891.156860 1273.405518,901.029724 1258.949341,902.002502 
	C1244.952148,902.944397 1230.912109,903.253906 1216.889648,903.806702 
	C1216.658569,903.815796 1216.410156,903.385986 1215.999512,903.001648 
	C1215.999512,870.171753 1215.999634,837.184143 1215.999634,804.196533 
	C1215.999634,763.374146 1215.962158,722.551758 1216.026489,681.729492 
	C1216.042114,671.834106 1219.847046,666.677368 1228.960938,665.922302 
	C1231.846436,665.683289 1234.692505,664.966064 1237.650879,664.451233 
	C1237.650879,660.072510 1237.650879,655.689148 1237.650879,651.415283 
	C1209.589966,651.415283 1181.879883,651.415283 1154.296875,651.415283 
	C1154.296875,656.110229 1154.296875,660.385498 1154.296875,664.999878 
	C1155.890381,664.999878 1157.225464,664.822388 1158.498657,665.027832 
	C1169.345459,666.777893 1175.180786,667.833496 1175.123901,681.865906 
	C1174.849365,749.513306 1174.844849,817.163086 1175.123047,884.810486 
	C1175.183105,899.415100 1173.164673,901.714722 1159.331787,904.796204 
	C1157.758423,905.146729 1156.096680,905.100952 1154.307617,905.253235 
	C1154.307617,909.830139 1154.307617,914.222656 1154.307617,919.000427 
	C1173.908691,919.000427 1193.204346,919.000427 1213.500000,919.000427 
M579.773621,354.323334 
	C584.574646,358.118134 586.124023,363.126465 586.066650,369.143829 
	C585.887024,387.973694 586.000671,406.806366 586.000671,425.637970 
	C586.000671,475.466705 586.006897,525.295410 585.995544,575.124146 
	C585.993225,585.482666 580.845215,590.658875 570.505615,591.052673 
	C568.334595,591.135376 566.188965,591.884888 564.308716,592.270386 
	C564.308716,597.180054 564.308716,601.442688 564.308716,606.000427 
	C566.414551,606.000427 568.221436,606.000427 570.028320,606.000427 
	C606.191650,606.000244 642.355713,605.876221 678.517700,606.097778 
	C686.341187,606.145752 693.972900,607.748352 696.502380,616.683838 
	C701.114929,616.683838 705.378113,616.683838 709.612549,616.683838 
	C709.612549,592.316711 709.612549,568.267944 709.612549,544.246216 
	C705.270264,544.246216 701.317139,544.246216 697.488586,544.246216 
	C695.954895,551.682251 694.529907,558.870361 692.982117,566.031860 
	C690.532471,577.365662 684.760559,585.991821 672.766663,588.531738 
	C667.333435,589.682373 661.646729,589.732178 656.061890,590.049561 
	C646.531311,590.591064 636.990356,590.949890 627.000122,591.406189 
	C627.000122,588.465759 627.000122,586.503296 627.000122,584.540833 
	C627.000122,532.545654 627.000122,480.550476 627.000122,428.555298 
	C627.000122,407.557251 626.991760,386.559174 627.005066,365.561127 
	C627.009399,358.632935 630.273254,354.449799 637.020630,353.037872 
	C640.503235,352.309143 644.071289,351.988770 647.630554,351.479645 
	C647.630554,347.029175 647.630554,342.646729 647.630554,338.269104 
	C619.666565,338.269104 592.072510,338.269104 564.299561,338.269104 
	C564.299561,342.934448 564.299561,347.328003 564.299561,351.193054 
	C569.470581,352.196869 574.253235,353.125275 579.773621,354.323334 
M508.515747,695.015442 
	C510.016174,698.595764 511.516602,702.176147 513.140503,706.051025 
	C517.637756,704.818970 521.866028,703.660645 525.930664,702.547180 
	C521.167358,682.208069 516.621887,662.534363 511.873901,642.909607 
	C511.365448,640.807922 509.842438,637.474426 508.505127,637.328796 
	C504.563446,636.899536 498.402222,636.271545 496.826904,638.431946 
	C491.434845,645.826538 484.099335,646.382812 476.393372,646.995117 
	C467.698059,647.686035 458.887970,647.682068 450.325714,649.141357 
	C432.900574,652.111328 419.043427,660.657959 409.786011,676.364990 
	C401.943787,689.670959 399.089539,704.037476 399.045624,719.108459 
	C398.918365,762.763611 398.948364,806.419495 399.028076,850.074829 
	C399.057220,866.038757 402.239990,881.270630 411.021423,894.900635 
	C417.434753,904.855042 425.992554,912.187195 436.931396,917.181274 
	C449.535675,922.935730 462.737366,922.670349 475.808228,921.758301 
	C487.553009,920.938843 498.403900,916.355652 506.815430,907.603210 
	C513.995178,900.132629 518.027222,890.907288 520.561584,880.945007 
	C523.540833,869.233643 524.813232,857.410706 523.676331,845.396973 
	C518.294189,845.396973 513.244934,845.396973 508.000000,845.396973 
	C508.000000,848.782349 508.025177,851.772888 507.995636,854.762878 
	C507.865082,867.983643 504.763733,880.349243 496.899384,891.166382 
	C490.530365,899.926636 481.759766,905.208313 470.919769,904.844971 
	C453.281281,904.253784 440.053314,889.283569 440.031097,872.773438 
	C439.952362,814.288452 439.900940,755.803040 440.080139,697.318481 
	C440.117920,684.990295 445.476990,674.922241 455.746063,667.796143 
	C467.379639,659.723267 486.660645,660.213867 495.249756,671.999573 
	C500.283295,678.906494 503.853973,686.879517 508.515747,695.015442 
M1070.999756,740.500000 
	C1070.999756,790.301086 1070.834229,840.103333 1071.162598,889.902222 
	C1071.217529,898.219788 1066.286499,902.410889 1059.554932,903.931396 
	C1056.555298,904.608948 1053.468018,904.899048 1050.335449,905.377991 
	C1050.335449,909.893860 1050.335449,914.281860 1050.335449,918.612305 
	C1078.376587,918.612305 1106.080444,918.612305 1133.738525,918.612305 
	C1133.738525,913.944458 1133.738525,909.667603 1133.738525,905.206848 
	C1132.692505,905.126221 1131.887695,905.098755 1131.092407,904.997803 
	C1117.385498,903.258423 1111.864624,900.974243 1111.927124,884.350159 
	C1112.123291,832.218079 1111.999268,780.084717 1111.999390,727.951904 
	C1111.999390,712.295410 1111.809937,696.635681 1112.072876,680.983582 
	C1112.223633,672.013123 1115.289551,667.046265 1124.700073,665.954224 
	C1127.731201,665.602417 1130.727783,664.954163 1133.750610,664.439819 
	C1133.750610,660.022034 1133.750610,655.759583 1133.750610,651.306152 
	C1105.796753,651.306152 1078.093872,651.306152 1050.356934,651.306152 
	C1050.356934,656.012756 1050.356934,660.403931 1050.356934,665.001526 
	C1052.205078,665.001526 1053.746826,664.752441 1055.179810,665.041748 
	C1064.913940,667.007019 1071.390991,667.372681 1071.099121,681.539673 
	C1070.701294,700.852234 1070.999756,720.179199 1070.999756,740.500000 
z"/>
<path fill="#FED8E5" opacity="1.000000" stroke="none" 
	d="
M830.863647,604.032288 
	C815.655029,609.840393 800.355591,610.015259 784.859436,608.082581 
	C773.435242,606.657715 763.209351,602.636902 753.919800,595.621094 
	C744.772217,588.712524 739.058899,579.630310 735.011536,569.275940 
	C730.540466,557.837402 729.010620,545.844177 729.006104,533.631958 
	C728.990356,490.465759 728.696472,447.296326 729.161926,404.135132 
	C729.328857,388.661896 732.830872,373.675232 741.812195,360.467621 
	C751.050232,346.882507 763.928284,339.145752 779.850830,335.977661 
	C794.098267,333.142883 808.260498,333.087830 822.324524,336.975769 
	C838.262695,341.381714 850.519653,350.660156 858.560059,365.153900 
	C865.865967,378.323792 868.980469,392.621429 868.989990,407.612762 
	C869.017944,451.445618 869.419128,495.284302 868.810791,539.108704 
	C868.535706,558.924133 863.881775,578.006409 848.803406,592.401794 
	C843.820618,597.158875 837.147034,600.145020 830.863647,604.032288 
M771.001221,548.499756 
	C771.337585,556.089966 770.677979,563.887390 772.206116,571.229614 
	C776.051880,589.706726 795.943237,600.365112 813.305725,590.243896 
	C824.843628,583.518066 828.868286,572.486450 828.910950,560.037598 
	C829.111938,501.378296 828.994385,442.717865 829.007935,384.057861 
	C829.009766,376.172180 827.298340,368.693542 822.955383,362.114807 
	C817.329590,353.592896 809.111145,348.577698 798.924316,349.173004 
	C781.031433,350.218597 770.959839,366.972778 770.974670,380.518829 
	C771.035645,436.179138 771.000793,491.839508 771.001221,548.499756 
z"/>
<path fill="#FED8E5" opacity="1.000000" stroke="none" 
	d="
M1231.000244,504.000000 
	C1231.000122,470.354675 1230.710571,437.205719 1231.126465,404.065613 
	C1231.323853,388.343933 1235.000366,373.219086 1244.047241,359.960968 
	C1254.748169,344.278900 1270.206299,337.105652 1288.696777,334.881378 
	C1300.471436,333.464935 1311.971313,333.800140 1323.400391,336.783203 
	C1346.299316,342.759979 1360.230835,358.052887 1366.764893,380.128571 
	C1369.242432,388.498840 1370.738037,397.472168 1370.816772,406.187439 
	C1371.215210,450.322083 1371.180908,494.463501 1370.884521,538.599731 
	C1370.800903,551.045593 1368.276245,563.231567 1363.076050,574.739685 
	C1355.581787,591.324707 1342.958618,601.731140 1325.438477,606.218689 
	C1306.652344,611.030518 1287.862183,610.834045 1269.766357,603.744568 
	C1250.044800,596.018127 1238.977661,580.299438 1234.183472,560.266052 
	C1232.142700,551.738708 1231.569580,542.778748 1231.115723,533.974854 
	C1230.610352,524.173950 1231.000122,514.326965 1231.000244,504.000000 
M1273.000366,516.500000 
	C1273.000366,531.661865 1273.186401,546.827026 1272.914307,561.984009 
	C1272.794800,568.645569 1274.474609,574.538330 1277.649414,580.277466 
	C1284.333374,592.360718 1300.654663,597.838074 1312.890259,591.543335 
	C1325.620605,584.994141 1330.865234,573.597717 1330.914062,559.966858 
	C1331.118408,502.819000 1331.058228,445.669800 1330.912720,388.521576 
	C1330.897827,382.665039 1330.104492,376.720337 1328.909058,370.975403 
	C1326.281982,358.348999 1311.801880,347.588348 1299.894653,349.021759 
	C1284.356934,350.892242 1273.032959,365.347900 1273.017822,379.543030 
	C1272.969482,424.861969 1273.000244,470.181000 1273.000366,516.500000 
z"/>
<path fill="#FED8E5" opacity="1.000000" stroke="none" 
	d="
M1481.049072,698.239868 
	C1484.343384,690.031677 1486.845337,681.812927 1491.021973,674.558289 
	C1498.773193,661.094543 1511.155640,653.573975 1526.141968,649.856445 
	C1542.628662,645.766724 1559.045654,645.636841 1575.110596,651.046814 
	C1598.287720,658.851746 1611.155273,676.044617 1615.819458,699.401978 
	C1617.579102,708.213928 1617.865356,717.424194 1617.908081,726.457214 
	C1618.111206,769.453491 1618.277954,812.453918 1617.874023,855.447388 
	C1617.689697,875.068359 1611.784424,892.814697 1596.854248,906.712463 
	C1588.540405,914.451416 1578.632446,919.218994 1567.715820,920.755066 
	C1551.027954,923.103149 1534.281250,923.512878 1518.023193,917.137268 
	C1505.366577,912.173828 1495.918945,903.583740 1489.157227,892.198364 
	C1481.352905,879.057434 1478.872192,864.479492 1478.935669,849.246582 
	C1479.119385,805.083496 1478.924438,760.918823 1479.089844,716.755615 
	C1479.112427,710.722900 1480.341797,704.694641 1481.049072,698.239868 
M1577.988892,880.039978 
	C1577.992554,818.393982 1578.012085,756.747986 1577.955688,695.102051 
	C1577.952759,691.844971 1577.733887,688.473206 1576.890503,685.350708 
	C1572.094604,667.596191 1556.408325,658.196777 1539.939575,664.167786 
	C1527.232544,668.775024 1520.204590,680.671021 1520.125488,695.870544 
	C1519.817139,755.182373 1519.853882,814.497681 1520.214355,873.808960 
	C1520.252441,880.070007 1522.365723,886.737061 1525.068970,892.485596 
	C1533.521606,910.460510 1557.763428,910.989075 1568.677490,899.005371 
	C1573.519409,893.688721 1576.204834,887.654175 1577.988892,880.039978 
z"/>
<path fill="#FED8E5" opacity="1.000000" stroke="none" 
	d="
M845.653687,1205.308716 
	C861.758484,1209.044189 877.437927,1212.897461 893.265137,1215.996582 
	C905.924194,1218.475464 918.757385,1220.074097 931.523010,1221.998657 
	C962.951782,1226.736938 994.619629,1226.479858 1026.243042,1225.827026 
	C1040.676880,1225.529053 1055.106689,1223.651611 1069.475220,1221.956665 
	C1083.276611,1220.328613 1097.148193,1218.721680 1110.716431,1215.827637 
	C1130.770874,1211.550049 1150.802612,1206.873535 1170.438721,1201.009399 
	C1189.915649,1195.192749 1209.285767,1188.625244 1227.978149,1180.682007 
	C1247.919312,1172.208130 1267.299561,1162.270508 1286.386230,1151.973755 
	C1302.161987,1143.463135 1317.578735,1134.120605 1332.375488,1124.006836 
	C1347.855225,1113.426270 1362.906006,1102.078491 1377.229858,1089.983154 
	C1393.746460,1076.036255 1409.599976,1061.251099 1425.093506,1046.164429 
	C1435.231323,1036.292725 1444.208130,1025.229736 1453.742920,1014.734863 
	C1454.401245,1014.010376 1455.369873,1013.090515 1456.205811,1013.078430 
	C1464.663574,1012.955811 1473.123901,1013.003662 1481.928711,1013.799988 
	C1378.270996,1139.953857 1245.967529,1216.243286 1084.118530,1238.668213 
	C954.234863,1256.664185 830.320190,1234.488159 713.951599,1173.836426 
	C638.142761,1134.324707 573.260498,1081.027710 519.010254,1013.008179 
	C528.894897,1013.008179 537.530579,1012.476501 546.028931,1013.322876 
	C548.675110,1013.586426 551.126160,1017.421021 553.352417,1019.902588 
	C556.517822,1023.431091 559.171387,1027.430786 562.433044,1030.858643 
	C573.078003,1042.046021 583.491882,1053.499390 594.735901,1064.061401 
	C620.189514,1087.970703 647.191956,1110.074707 676.726318,1128.778320 
	C694.342529,1139.934204 712.574951,1150.158691 730.845581,1160.230103 
	C760.503357,1176.578491 791.952087,1188.778076 824.165283,1199.046387 
	C831.141968,1201.270386 838.246460,1203.093262 845.653687,1205.308716 
z"/>
<path fill="#FED8E5" opacity="1.000000" stroke="none" 
	d="
M1167.304688,51.678738 
	C1150.661377,47.472977 1134.448242,43.099613 1118.044922,39.622086 
	C1104.952148,36.846382 1091.630615,35.145870 1078.406006,32.996414 
	C1044.424072,27.473202 1010.149841,27.399227 975.897583,28.166332 
	C961.303772,28.493176 946.674194,30.102528 932.198242,32.116707 
	C911.987244,34.928848 891.744263,37.914032 871.802856,42.173031 
	C836.502197,49.712406 802.340332,61.051067 769.151062,75.345970 
	C734.259277,90.374092 700.874084,108.160904 669.696594,129.851715 
	C654.294739,140.567062 639.175232,151.819382 624.858154,163.928574 
	C608.104370,178.098755 592.037842,193.131775 576.302612,208.437592 
	C566.398621,218.071289 557.665771,228.907089 548.351196,239.152420 
	C547.606262,239.971786 546.430908,240.900879 545.440979,240.917633 
	C537.123352,241.058243 528.802307,240.997681 520.098267,240.236572 
	C616.057800,122.838104 738.132568,48.378124 887.306885,20.263170 
	C1013.706604,-3.559433 1136.358154,11.175880 1253.913330,63.612381 
	C1344.118652,103.849304 1420.150024,162.879791 1483.121948,240.983459 
	C1473.031982,240.983459 1464.262939,241.473663 1455.612915,240.673950 
	C1453.134766,240.444824 1450.859985,236.609039 1448.743286,234.205521 
	C1445.499634,230.521942 1442.689209,226.441879 1439.315430,222.890594 
	C1428.909180,211.937088 1418.759888,200.684982 1407.712280,190.407135 
	C1387.440063,171.547516 1366.183105,153.874359 1343.588623,137.730438 
	C1320.792358,121.442444 1296.982056,107.012772 1272.207031,94.033806 
	C1249.213623,81.988144 1225.589478,71.426788 1201.033325,62.998760 
	C1189.942871,59.192318 1178.781738,55.591766 1167.304688,51.678738 
z"/>
<path fill="#FED8E5" opacity="1.000000" stroke="none" 
	d="
M1026.000732,430.000000 
	C1026.000732,409.503448 1025.846558,389.505280 1026.056396,369.510925 
	C1026.190552,356.730438 1020.331055,352.752228 1008.677795,352.011292 
	C1007.362976,351.927734 1006.038330,352.000000 1004.359924,352.000000 
	C1004.359924,347.360077 1004.359924,342.972260 1004.359924,338.289429 
	C1024.348145,338.289429 1044.276489,338.289429 1064.603149,338.289429 
	C1064.603149,342.585999 1064.603149,346.965851 1064.603149,351.467316 
	C1061.137817,351.970947 1057.576172,352.299683 1054.100098,353.033569 
	C1047.194214,354.491516 1044.014404,358.519012 1044.004150,365.474731 
	C1043.990112,375.139709 1044.006592,384.804718 1044.006714,394.469727 
	C1044.007202,462.791290 1044.006958,531.112854 1044.006958,599.434387 
	C1044.006958,601.411377 1044.006958,603.388367 1044.006958,605.982605 
	C1038.136230,605.982605 1032.529053,606.153198 1026.949829,605.833862 
	C1025.877319,605.772461 1024.553345,603.954346 1023.957764,602.664001 
	C1017.937012,589.618896 1011.960632,576.551636 1006.138245,563.416870 
	C1000.459412,550.606018 994.998474,537.698792 989.399048,524.852539 
	C978.905273,500.777649 968.431274,476.693970 957.850830,452.657166 
	C950.877441,436.814911 943.734009,421.047455 936.663086,405.248108 
	C933.773193,398.790833 930.874207,392.337646 926.999512,386.148743 
	C926.999512,387.738739 926.999634,389.328735 926.999634,390.918732 
	C926.999634,452.408112 927.055176,513.897644 926.946472,575.386780 
	C926.927612,586.055237 931.754517,590.350525 942.257446,590.883179 
	C946.765930,591.111938 948.570496,592.518066 948.056274,597.067322 
	C947.744446,599.826355 947.998779,602.649292 947.998779,605.718750 
	C927.967590,605.718750 908.372620,605.718750 888.388611,605.718750 
	C888.388611,601.385986 888.388611,596.996094 888.388611,592.138489 
	C892.382446,591.435303 896.595520,591.020996 900.613342,589.904480 
	C905.827637,588.455383 908.981567,583.919739 908.983398,578.444092 
	C909.007751,507.123047 909.014954,435.802032 908.975586,364.480988 
	C908.971619,357.324066 903.050171,352.463928 894.139832,352.014709 
	C892.327332,351.923340 890.506165,352.001465 888.345520,352.001465 
	C888.345520,347.351349 888.345520,342.962524 888.345520,338.231354 
	C889.529602,338.151794 890.647156,338.012115 891.764893,338.011292 
	C910.428345,337.997498 929.092285,338.067749 947.754761,337.930969 
	C950.647949,337.909760 952.089417,338.788727 953.252869,341.456757 
	C962.123901,361.799377 971.116882,382.089111 980.148621,402.361145 
	C986.192749,415.927216 992.392578,429.423798 998.468750,442.975677 
	C1007.399963,462.895416 1016.283081,482.836731 1026.000732,502.778748 
	C1026.000732,478.685852 1026.000732,454.592926 1026.000732,430.000000 
z"/>
<path fill="#FED8E5" opacity="1.000000" stroke="none" 
	d="
M1188.053833,359.831451 
	C1190.579590,369.843140 1193.065552,379.435059 1195.655396,389.428406 
	C1190.926758,390.694641 1186.893555,391.774658 1182.848267,392.857910 
	C1178.984619,384.789612 1175.134277,376.728912 1171.266357,368.676666 
	C1166.070312,357.859772 1158.082275,350.531769 1145.779785,349.111450 
	C1138.285400,348.246246 1131.315308,350.622528 1125.536011,355.135162 
	C1111.332153,366.225830 1109.472412,380.212219 1116.354248,395.176849 
	C1120.572388,404.349091 1126.992065,412.688690 1133.358765,420.654327 
	C1145.435791,435.764465 1158.304810,450.238678 1170.610229,465.170380 
	C1177.784790,473.876068 1184.694458,482.816833 1191.382080,491.902893 
	C1200.249390,503.950073 1205.430542,517.371826 1207.200562,532.420288 
	C1208.874268,546.649658 1208.719604,560.582397 1201.791748,573.202759 
	C1189.346313,595.873962 1170.172974,608.270020 1143.758667,609.113525 
	C1129.923096,609.555298 1117.019775,606.868896 1104.647583,600.936340 
	C1097.844482,597.674133 1093.230957,599.895813 1089.349243,604.132385 
	C1088.589844,604.961182 1087.416260,605.849731 1086.385864,605.911499 
	C1082.773315,606.128052 1079.140015,605.995422 1075.264282,605.995422 
	C1075.264282,580.271545 1075.264282,555.011536 1075.264282,529.011963 
	C1078.825195,529.011963 1082.448975,528.724304 1085.977539,529.177917 
	C1087.114502,529.324158 1088.588257,531.282898 1088.910645,532.647949 
	C1092.102661,546.169495 1095.869507,559.440918 1104.002808,570.999817 
	C1111.925903,582.260193 1121.884277,589.963318 1136.465942,590.036560 
	C1151.287231,590.110962 1162.598145,580.182922 1165.983643,566.211670 
	C1170.256226,548.579956 1165.910400,532.356262 1156.081909,517.919922 
	C1147.824829,505.791748 1138.079956,494.656006 1128.733765,483.294647 
	C1114.380615,465.846893 1098.440063,449.612793 1086.738281,430.133392 
	C1076.669556,413.372345 1071.842285,394.932190 1078.218872,376.016052 
	C1086.185425,352.383270 1104.415405,339.493286 1128.552856,335.127411 
	C1136.766602,333.641785 1145.296631,333.979645 1153.593262,332.838654 
	C1156.777100,332.400818 1160.647217,330.922272 1162.557007,328.576538 
	C1165.934814,324.427643 1169.705078,323.410126 1174.527832,323.972961 
	C1176.005249,324.145386 1177.519775,323.999725 1179.620361,323.999725 
	C1182.412964,335.781525 1185.213379,347.596619 1188.053833,359.831451 
z"/>
<path fill="#FED8E5" opacity="1.000000" stroke="none" 
	d="
M750.299194,892.720581 
	C762.133545,906.098694 786.523071,907.817200 798.729553,891.629639 
	C805.591919,882.529053 807.156860,871.687439 805.698608,860.662476 
	C802.838684,839.039612 790.023071,822.742493 776.408997,806.784546 
	C760.119446,787.690552 743.594299,768.718445 728.596252,748.629639 
	C718.837891,735.559082 713.467773,720.020508 713.991516,703.107788 
	C714.377808,690.634644 719.088196,679.831726 727.079346,670.517090 
	C736.861694,659.114746 749.227905,651.619385 763.978333,648.638245 
	C769.903931,647.440674 776.076721,647.310547 782.152283,647.047424 
	C790.759766,646.674622 799.075378,646.389709 804.852844,638.160400 
	C805.960510,636.582642 810.381409,637.370056 813.263550,636.989075 
	C816.820129,636.518921 818.293030,637.756104 819.165100,641.559326 
	C823.818420,661.853699 828.902710,682.049316 833.886719,702.479370 
	C829.498230,703.696167 825.142273,704.903931 821.895325,705.804199 
	C815.766663,694.581665 810.125366,683.612793 803.858765,673.013672 
	C800.028198,666.534729 793.441833,664.117798 786.124146,662.920959 
	C768.430542,660.027039 754.174683,672.460999 751.391174,688.314087 
	C749.530518,698.911133 753.004578,708.763672 758.941040,717.126526 
	C766.803894,728.203125 775.828552,738.464172 784.496155,748.958252 
	C795.983459,762.866333 807.879517,776.446350 819.068665,790.587646 
	C825.421936,798.617188 831.169373,807.217896 836.371521,816.043579 
	C843.136108,827.520203 845.799194,840.138306 846.228821,853.592834 
	C846.613159,865.627686 845.447266,877.150513 839.614563,887.568726 
	C829.561584,905.524963 814.549072,917.427246 793.897705,920.942383 
	C776.323242,923.933777 759.202393,922.302673 743.062378,914.035034 
	C739.011292,911.959900 734.808594,912.014771 731.096313,914.530884 
	C723.984863,919.350830 722.874023,919.778137 714.247681,918.454041 
	C714.247681,893.235962 714.247681,867.978699 714.247681,842.359619 
	C718.190552,842.359619 722.108154,842.359619 726.518860,842.359619 
	C730.760864,860.468262 735.041687,879.026611 750.299194,892.720581 
z"/>
<path fill="#FED8E5" opacity="1.000000" stroke="none" 
	d="
M490.008820,389.920044 
	C494.015686,407.987915 497.958313,425.640656 502.030945,443.263397 
	C505.918976,460.087524 510.061829,476.853241 513.876953,493.693542 
	C519.024902,516.417053 523.957947,539.189270 529.002747,561.936157 
	C530.307861,567.821289 531.679810,573.691650 533.032410,579.566162 
	C534.776367,587.139709 538.924438,590.509583 546.810181,591.040527 
	C549.068115,591.192505 551.293823,591.822754 553.999268,592.319031 
	C553.999268,594.488281 553.999268,596.619995 553.999268,598.751709 
	C553.999268,600.908569 553.999268,603.065430 553.999268,605.610840 
	C526.066772,605.610840 498.350983,605.610840 470.316650,605.610840 
	C470.316650,601.382751 470.316650,597.122192 470.316650,592.151123 
	C474.663788,591.462341 479.283569,590.908264 483.823578,589.968811 
	C490.412903,588.605225 492.763428,584.312744 491.335754,577.609436 
	C489.093353,567.080750 487.075714,556.503845 485.001740,545.939819 
	C484.564789,543.714233 484.096588,541.937439 481.112732,541.954712 
	C464.294495,542.052185 447.475403,542.001770 430.170288,542.001770 
	C427.443085,554.502808 424.334442,566.782776 422.260590,579.235046 
	C421.438904,584.168640 427.988037,590.417480 435.862274,591.016113 
	C438.447906,591.212708 441.017883,591.614624 443.999146,591.971008 
	C443.999146,594.496765 443.999146,596.633728 443.999146,598.770691 
	C443.999146,600.925842 443.999146,603.080994 443.999146,605.617737 
	C424.055450,605.617737 404.339294,605.617737 384.012085,605.617737 
	C384.012085,601.862793 383.777832,598.064087 384.150726,594.325989 
	C384.266968,593.160950 386.055023,591.197754 387.027222,591.227905 
	C401.529633,591.677673 404.694122,581.522339 406.993896,570.382019 
	C409.663269,557.451416 412.361572,544.525940 415.171936,531.625427 
	C420.408478,507.588165 425.719788,483.567139 431.029541,459.545929 
	C434.828674,442.358765 438.715698,425.191010 442.492493,407.998962 
	C447.701721,384.286224 452.869720,360.564331 457.978668,336.829865 
	C458.542786,334.209320 459.488983,332.570770 462.498779,332.977356 
	C463.644440,333.132080 464.828613,333.001343 465.995239,333.001221 
	C476.981659,333.000061 477.143402,332.962067 479.561493,343.254791 
	C483.174988,358.635773 486.534088,374.076477 490.008820,389.920044 
M435.016083,519.588257 
	C434.643372,521.906494 434.270630,524.224670 433.852692,526.824036 
	C449.884888,526.824036 465.167908,526.824036 480.569000,526.824036 
	C473.031647,490.415771 465.527924,454.169922 458.024200,417.924042 
	C452.801025,438.923645 448.289642,459.772064 443.700928,480.603455 
	C440.898499,493.325592 437.977112,506.021515 435.016083,519.588257 
z"/>
<path fill="#FED8E5" opacity="1.000000" stroke="none" 
	d="
M643.911926,893.928833 
	C641.575378,882.866699 639.287476,872.212402 636.999817,861.558167 
	C636.558044,859.500793 636.117371,857.443176 635.594543,855.005066 
	C618.584717,855.005066 601.615601,854.940491 584.649719,855.141785 
	C583.442017,855.156128 581.485413,856.938232 581.183411,858.208862 
	C578.622437,868.984070 576.198059,879.799072 574.082458,890.670166 
	C572.922668,896.630371 578.894409,902.764893 586.481873,903.958374 
	C589.523438,904.436707 592.581909,904.807617 595.788513,905.248962 
	C595.788513,909.785583 595.788513,914.059875 595.788513,918.667847 
	C575.618835,918.667847 555.573120,918.667847 535.262634,918.667847 
	C535.262634,914.267212 535.262634,910.002808 535.262634,905.319031 
	C538.216125,904.880615 541.240173,904.436523 544.262634,903.981995 
	C549.619629,903.176270 555.545776,897.202820 556.927002,890.874146 
	C563.665588,859.997620 570.263062,829.090210 577.051331,798.224609 
	C581.774536,776.748901 586.824524,755.344971 591.547852,733.869263 
	C596.483032,711.430237 601.191528,688.941528 606.022461,666.479492 
	C607.324219,660.427002 608.566650,654.353333 610.194702,648.387207 
	C610.479492,647.343262 612.514954,646.183411 613.799683,646.111633 
	C618.606262,645.843079 623.436707,646.004211 628.712219,646.004211 
	C631.130798,656.031860 633.589661,665.937317 635.900818,675.877197 
	C639.294373,690.472168 642.628113,705.081482 645.905151,719.703064 
	C650.964172,742.275940 655.874756,764.882263 660.992004,787.441833 
	C667.909607,817.937744 674.976746,848.399597 681.944824,878.884094 
	C683.069275,883.803467 683.906189,888.789429 685.067200,893.699341 
	C686.478088,899.665771 691.067139,903.343750 697.346680,904.033508 
	C699.759827,904.298584 702.134705,904.911133 704.757080,905.409119 
	C704.757080,909.692383 704.757080,913.972656 704.757080,918.627686 
	C677.369995,918.627686 649.992004,918.627686 622.306396,918.627686 
	C622.306396,914.218018 622.306396,909.826294 622.306396,905.773376 
	C629.986145,902.370972 641.353455,906.824707 643.911926,893.928833 
M601.099060,766.720886 
	C595.879700,791.046326 590.660278,815.371826 585.460205,839.607300 
	C601.070251,839.607300 616.450195,839.607300 632.263611,839.607300 
	C624.714783,803.129272 617.262329,767.116699 609.809814,731.104126 
	C609.595337,731.130127 609.380920,731.156067 609.166443,731.182068 
	C606.617310,742.779297 604.068115,754.376587 601.099060,766.720886 
z"/>
<path fill="#FED8E5" opacity="1.000000" stroke="none" 
	d="
M1005.249146,646.308105 
	C1005.708313,645.756958 1006.115417,645.549561 1006.157532,645.284302 
	C1007.715271,635.463989 1015.131897,638.234924 1021.861450,638.061035 
	C1027.079590,663.086975 1032.287720,688.065430 1037.580688,713.450439 
	C1032.607178,714.780090 1028.264160,715.941223 1024.007202,717.079346 
	C1020.277893,707.468079 1016.930054,697.967468 1012.930725,688.749573 
	C1007.706604,676.708740 999.283081,668.006165 985.628418,666.067932 
	C979.654541,665.219971 973.578613,665.091125 966.999634,664.594177 
	C966.999634,667.284546 966.999695,669.071350 966.999695,670.858093 
	C966.999878,744.010010 967.110474,817.162292 966.835571,890.313171 
	C966.806946,897.934326 971.869934,902.700500 978.862366,903.980408 
	C981.738647,904.506836 984.635925,904.918640 987.756104,905.419922 
	C987.756104,909.712708 987.756104,913.989563 987.756104,918.634521 
	C960.023560,918.634521 932.311340,918.634521 904.298706,918.634521 
	C904.298706,914.201721 904.298706,909.808777 904.298706,905.315613 
	C908.212646,904.770203 912.046387,904.657959 915.626587,903.647278 
	C922.616821,901.674194 925.971130,896.336609 925.986877,887.852051 
	C926.027649,865.856567 926.000610,843.860901 926.000671,821.865356 
	C926.000671,771.708801 926.000671,721.552307 926.000671,671.395752 
	C926.000671,669.438660 926.000671,667.481567 926.000671,665.585938 
	C904.169739,663.069336 887.685730,670.353516 879.916138,692.230164 
	C877.248718,699.740906 874.690308,707.291870 871.872131,714.745117 
	C871.568298,715.548645 869.777588,716.381531 868.816711,716.241150 
	C864.977051,715.680359 861.192871,714.740356 856.758972,713.808411 
	C862.029236,688.483582 867.227783,663.503418 872.480774,638.261475 
	C876.698425,638.261475 880.979919,638.261475 885.683533,638.261475 
	C885.782471,638.717712 885.850159,639.321045 886.043945,639.880676 
	C889.064270,648.602417 891.841125,650.911194 901.129395,650.950256 
	C931.955933,651.079895 962.785156,651.151062 993.608398,650.806519 
	C997.429688,650.763855 1001.221436,648.083191 1005.249146,646.308105 
z"/>
<path fill="#FED8E5" opacity="1.000000" stroke="none" 
	d="
M1316.276245,918.982483 
	C1315.202026,918.011108 1314.148315,917.080078 1314.087402,916.088013 
	C1313.874756,912.623047 1314.005127,909.137024 1314.005127,905.312927 
	C1317.279541,904.844910 1320.346313,904.583740 1323.331543,903.942627 
	C1329.354492,902.649109 1335.081543,899.641541 1335.061523,890.101868 
	C1334.938965,831.789734 1335.000610,773.477234 1335.000854,715.164856 
	C1335.000854,704.002197 1334.555664,692.817200 1335.116699,681.682800 
	C1335.772827,668.662598 1329.131470,666.654846 1318.815552,665.031311 
	C1317.401001,664.808655 1315.921021,665.000610 1314.239014,665.000610 
	C1314.239014,660.240967 1314.239014,655.971802 1314.239014,651.350586 
	C1342.008667,651.350586 1369.717407,651.350586 1397.714233,651.350586 
	C1397.714233,655.684143 1397.714233,659.945984 1397.714233,664.455627 
	C1394.641235,664.956909 1391.471313,665.487366 1388.296997,665.989319 
	C1380.104492,667.284546 1376.480103,671.368591 1376.006348,679.877686 
	C1375.969360,680.542114 1375.999390,681.210266 1375.999390,681.876709 
	C1375.999268,754.184021 1375.999390,826.491394 1375.999390,898.798706 
	C1375.999390,900.283081 1375.999390,901.767517 1375.999390,903.730042 
	C1386.648193,903.730042 1397.053833,903.891541 1407.449951,903.651489 
	C1411.668091,903.554016 1415.873413,902.630554 1420.071777,901.999023 
	C1431.104858,900.339294 1439.405273,892.554565 1441.978394,881.590759 
	C1442.906860,877.634705 1444.161499,873.744263 1444.886841,869.754639 
	C1445.616821,865.739380 1445.873657,861.638000 1446.369995,857.293823 
	C1450.685547,857.293823 1454.954102,857.293823 1459.613281,857.293823 
	C1459.613281,881.265991 1459.613281,905.309631 1459.613281,929.982666 
	C1455.726685,929.982666 1451.787231,930.056702 1447.854492,929.924683 
	C1446.995728,929.895813 1445.640625,929.327637 1445.394653,928.675720 
	C1442.044800,919.795837 1434.124756,919.181274 1426.711914,919.125183 
	C1390.060425,918.847595 1353.405640,918.996338 1316.276245,918.982483 
z"/>
<path fill="#FED8E5" opacity="1.000000" stroke="none" 
	d="
M1213.000000,919.000427 
	C1193.204346,919.000427 1173.908691,919.000427 1154.307617,919.000427 
	C1154.307617,914.222656 1154.307617,909.830139 1154.307617,905.253235 
	C1156.096680,905.100952 1157.758423,905.146729 1159.331787,904.796204 
	C1173.164673,901.714722 1175.183105,899.415100 1175.123047,884.810486 
	C1174.844849,817.163086 1174.849365,749.513306 1175.123901,681.865906 
	C1175.180786,667.833496 1169.345459,666.777893 1158.498657,665.027832 
	C1157.225464,664.822388 1155.890381,664.999878 1154.296875,664.999878 
	C1154.296875,660.385498 1154.296875,656.110229 1154.296875,651.415283 
	C1181.879883,651.415283 1209.589966,651.415283 1237.650879,651.415283 
	C1237.650879,655.689148 1237.650879,660.072510 1237.650879,664.451233 
	C1234.692505,664.966064 1231.846436,665.683289 1228.960938,665.922302 
	C1219.847046,666.677368 1216.042114,671.834106 1216.026489,681.729492 
	C1215.962158,722.551758 1215.999634,763.374146 1215.999634,804.196533 
	C1215.999634,837.184143 1215.999512,870.171753 1215.999512,903.001648 
	C1216.410156,903.385986 1216.658569,903.815796 1216.889648,903.806702 
	C1230.912109,903.253906 1244.952148,902.944397 1258.949341,902.002502 
	C1273.405518,901.029724 1279.820557,891.156860 1282.899170,878.470703 
	C1284.358765,872.456665 1284.872925,866.217957 1286.120972,860.143799 
	C1286.365845,858.952393 1287.927979,857.282959 1289.033569,857.156738 
	C1292.453369,856.766052 1295.946289,857.013916 1299.702515,857.013916 
	C1299.702515,881.330750 1299.702515,905.257385 1299.702515,929.970825 
	C1295.746460,929.970825 1291.664795,930.049194 1287.591064,929.906128 
	C1286.751343,929.876648 1285.430664,929.199036 1285.193604,928.519470 
	C1282.178833,919.875732 1274.478882,919.344177 1267.481445,919.158752 
	C1249.498901,918.682251 1231.495239,919.000061 1213.000000,919.000427 
z"/>
<path fill="#FED8E5" opacity="1.000000" stroke="none" 
	d="
M579.404785,354.188538 
	C574.253235,353.125275 569.470581,352.196869 564.299561,351.193054 
	C564.299561,347.328003 564.299561,342.934448 564.299561,338.269104 
	C592.072510,338.269104 619.666565,338.269104 647.630554,338.269104 
	C647.630554,342.646729 647.630554,347.029175 647.630554,351.479645 
	C644.071289,351.988770 640.503235,352.309143 637.020630,353.037872 
	C630.273254,354.449799 627.009399,358.632935 627.005066,365.561127 
	C626.991760,386.559174 627.000122,407.557251 627.000122,428.555298 
	C627.000122,480.550476 627.000122,532.545654 627.000122,584.540833 
	C627.000122,586.503296 627.000122,588.465759 627.000122,591.406189 
	C636.990356,590.949890 646.531311,590.591064 656.061890,590.049561 
	C661.646729,589.732178 667.333435,589.682373 672.766663,588.531738 
	C684.760559,585.991821 690.532471,577.365662 692.982117,566.031860 
	C694.529907,558.870361 695.954895,551.682251 697.488586,544.246216 
	C701.317139,544.246216 705.270264,544.246216 709.612549,544.246216 
	C709.612549,568.267944 709.612549,592.316711 709.612549,616.683838 
	C705.378113,616.683838 701.114929,616.683838 696.502380,616.683838 
	C693.972900,607.748352 686.341187,606.145752 678.517700,606.097778 
	C642.355713,605.876221 606.191650,606.000244 570.028320,606.000427 
	C568.221436,606.000427 566.414551,606.000427 564.308716,606.000427 
	C564.308716,601.442688 564.308716,597.180054 564.308716,592.270386 
	C566.188965,591.884888 568.334595,591.135376 570.505615,591.052673 
	C580.845215,590.658875 585.993225,585.482666 585.995544,575.124146 
	C586.006897,525.295410 586.000671,475.466705 586.000671,425.637970 
	C586.000671,406.806366 585.887024,387.973694 586.066650,369.143829 
	C586.124023,363.126465 584.574646,358.118134 579.404785,354.188538 
z"/>
<path fill="#FED8E5" opacity="1.000000" stroke="none" 
	d="
M508.299255,694.694214 
	C503.853973,686.879517 500.283295,678.906494 495.249756,671.999573 
	C486.660645,660.213867 467.379639,659.723267 455.746063,667.796143 
	C445.476990,674.922241 440.117920,684.990295 440.080139,697.318481 
	C439.900940,755.803040 439.952362,814.288452 440.031097,872.773438 
	C440.053314,889.283569 453.281281,904.253784 470.919769,904.844971 
	C481.759766,905.208313 490.530365,899.926636 496.899384,891.166382 
	C504.763733,880.349243 507.865082,867.983643 507.995636,854.762878 
	C508.025177,851.772888 508.000000,848.782349 508.000000,845.396973 
	C513.244934,845.396973 518.294189,845.396973 523.676331,845.396973 
	C524.813232,857.410706 523.540833,869.233643 520.561584,880.945007 
	C518.027222,890.907288 513.995178,900.132629 506.815430,907.603210 
	C498.403900,916.355652 487.553009,920.938843 475.808228,921.758301 
	C462.737366,922.670349 449.535675,922.935730 436.931396,917.181274 
	C425.992554,912.187195 417.434753,904.855042 411.021423,894.900635 
	C402.239990,881.270630 399.057220,866.038757 399.028076,850.074829 
	C398.948364,806.419495 398.918365,762.763611 399.045624,719.108459 
	C399.089539,704.037476 401.943787,689.670959 409.786011,676.364990 
	C419.043427,660.657959 432.900574,652.111328 450.325714,649.141357 
	C458.887970,647.682068 467.698059,647.686035 476.393372,646.995117 
	C484.099335,646.382812 491.434845,645.826538 496.826904,638.431946 
	C498.402222,636.271545 504.563446,636.899536 508.505127,637.328796 
	C509.842438,637.474426 511.365448,640.807922 511.873901,642.909607 
	C516.621887,662.534363 521.167358,682.208069 525.930664,702.547180 
	C521.866028,703.660645 517.637756,704.818970 513.140503,706.051025 
	C511.516602,702.176147 510.016174,698.595764 508.299255,694.694214 
z"/>
<path fill="#FED8E5" opacity="1.000000" stroke="none" 
	d="
M1070.999756,740.000000 
	C1070.999756,720.179199 1070.701294,700.852234 1071.099121,681.539673 
	C1071.390991,667.372681 1064.913940,667.007019 1055.179810,665.041748 
	C1053.746826,664.752441 1052.205078,665.001526 1050.356934,665.001526 
	C1050.356934,660.403931 1050.356934,656.012756 1050.356934,651.306152 
	C1078.093872,651.306152 1105.796753,651.306152 1133.750610,651.306152 
	C1133.750610,655.759583 1133.750610,660.022034 1133.750610,664.439819 
	C1130.727783,664.954163 1127.731201,665.602417 1124.700073,665.954224 
	C1115.289551,667.046265 1112.223633,672.013123 1112.072876,680.983582 
	C1111.809937,696.635681 1111.999390,712.295410 1111.999390,727.951904 
	C1111.999268,780.084717 1112.123291,832.218079 1111.927124,884.350159 
	C1111.864624,900.974243 1117.385498,903.258423 1131.092407,904.997803 
	C1131.887695,905.098755 1132.692505,905.126221 1133.738525,905.206848 
	C1133.738525,909.667603 1133.738525,913.944458 1133.738525,918.612305 
	C1106.080444,918.612305 1078.376587,918.612305 1050.335449,918.612305 
	C1050.335449,914.281860 1050.335449,909.893860 1050.335449,905.377991 
	C1053.468018,904.899048 1056.555298,904.608948 1059.554932,903.931396 
	C1066.286499,902.410889 1071.217529,898.219788 1071.162598,889.902222 
	C1070.834229,840.103333 1070.999756,790.301086 1070.999756,740.000000 
z"/>
<path fill="#4C6971" opacity="1.000000" stroke="none" 
	d="
M771.001221,547.999817 
	C771.000793,491.839508 771.035645,436.179138 770.974670,380.518829 
	C770.959839,366.972778 781.031433,350.218597 798.924316,349.173004 
	C809.111145,348.577698 817.329590,353.592896 822.955383,362.114807 
	C827.298340,368.693542 829.009766,376.172180 829.007935,384.057861 
	C828.994385,442.717865 829.111938,501.378296 828.910950,560.037598 
	C828.868286,572.486450 824.843628,583.518066 813.305725,590.243896 
	C795.943237,600.365112 776.051880,589.706726 772.206116,571.229614 
	C770.677979,563.887390 771.337585,556.089966 771.001221,547.999817 
z"/>
<path fill="#4C6971" opacity="1.000000" stroke="none" 
	d="
M1273.000366,516.000000 
	C1273.000244,470.181000 1272.969482,424.861969 1273.017822,379.543030 
	C1273.032959,365.347900 1284.356934,350.892242 1299.894653,349.021759 
	C1311.801880,347.588348 1326.281982,358.348999 1328.909058,370.975403 
	C1330.104492,376.720337 1330.897827,382.665039 1330.912720,388.521576 
	C1331.058228,445.669800 1331.118408,502.819000 1330.914062,559.966858 
	C1330.865234,573.597717 1325.620605,584.994141 1312.890259,591.543335 
	C1300.654663,597.838074 1284.333374,592.360718 1277.649414,580.277466 
	C1274.474609,574.538330 1272.794800,568.645569 1272.914307,561.984009 
	C1273.186401,546.827026 1273.000366,531.661865 1273.000366,516.000000 
z"/>
<path fill="#4C6971" opacity="1.000000" stroke="none" 
	d="
M1577.963623,880.490295 
	C1576.204834,887.654175 1573.519409,893.688721 1568.677490,899.005371 
	C1557.763428,910.989075 1533.521606,910.460510 1525.068970,892.485596 
	C1522.365723,886.737061 1520.252441,880.070007 1520.214355,873.808960 
	C1519.853882,814.497681 1519.817139,755.182373 1520.125488,695.870544 
	C1520.204590,680.671021 1527.232544,668.775024 1539.939575,664.167786 
	C1556.408325,658.196777 1572.094604,667.596191 1576.890503,685.350708 
	C1577.733887,688.473206 1577.952759,691.844971 1577.955688,695.102051 
	C1578.012085,756.747986 1577.992554,818.393982 1577.963623,880.490295 
z"/>
<path fill="#4C6971" opacity="1.000000" stroke="none" 
	d="
M435.062622,519.158691 
	C437.977112,506.021515 440.898499,493.325592 443.700928,480.603455 
	C448.289642,459.772064 452.801025,438.923645 458.024200,417.924042 
	C465.527924,454.169922 473.031647,490.415771 480.569000,526.824036 
	C465.167908,526.824036 449.884888,526.824036 433.852692,526.824036 
	C434.270630,524.224670 434.643372,521.906494 435.062622,519.158691 
z"/>
<path fill="#4C6971" opacity="1.000000" stroke="none" 
	d="
M601.309021,766.347351 
	C604.068115,754.376587 606.617310,742.779297 609.166443,731.182068 
	C609.380920,731.156067 609.595337,731.130127 609.809814,731.104126 
	C617.262329,767.116699 624.714783,803.129272 632.263611,839.607300 
	C616.450195,839.607300 601.070251,839.607300 585.460205,839.607300 
	C590.660278,815.371826 595.879700,791.046326 601.309021,766.347351 
z"/>
</svg>